<svg width="512" height="512" viewBox="0 0 512 512" style="color:#000000" xmlns="http://www.w3.org/2000/svg" class="h-full w-full"><rect width="512" height="512" x="0" y="0" rx="30" fill="transparent" stroke="transparent" stroke-width="0" stroke-opacity="100%" paint-order="stroke"></rect><svg width="256px" height="256px" viewBox="0 0 512 512" fill="#000000" x="128" y="128" role="img" style="display:inline-block;vertical-align:middle" xmlns="http://www.w3.org/2000/svg"><g fill="black"><mask id="circleFlagsUs0"><circle cx="256" cy="256" r="256" fill="#fff"/></mask><g mask="url(#circleFlagsUs0)"><path fill="#eee" d="M256 0h256v64l-32 32l32 32v64l-32 32l32 32v64l-32 32l32 32v64l-256 32L0 448v-64l32-32l-32-32v-64z"/><path fill="#d80027" d="M224 64h288v64H224Zm0 128h288v64H256ZM0 320h512v64H0Zm0 128h512v64H0Z"/><path fill="#0052b4" d="M0 0h256v256H0Z"/><path fill="#eee" d="m187 243l57-41h-70l57 41l-22-67zm-81 0l57-41H93l57 41l-22-67zm-81 0l57-41H12l57 41l-22-67zm162-81l57-41h-70l57 41l-22-67zm-81 0l57-41H93l57 41l-22-67zm-81 0l57-41H12l57 41l-22-67Zm162-82l57-41h-70l57 41l-22-67Zm-81 0l57-41H93l57 41l-22-67zm-81 0l57-41H12l57 41l-22-67Z"/></g></g></svg></svg>