<svg xmlns="http://www.w3.org/2000/svg" width="57" height="41" fill="none"><path fill="url(#a)" fill-rule="evenodd" d="M0 0h56.95v40.678H0z" clip-rule="evenodd"/><path fill="url(#b)" fill-rule="evenodd" d="M0 0h56.95v2.712H0zm0 5.424h56.95v2.712H0zm0 5.424h56.95v2.711H0zm0 5.423h56.95v2.712H0zm0 5.424h56.95v2.712H0zm0 5.424h56.95v2.712H0zm0 5.423h56.95v2.712H0zm0 5.424h56.95v2.712H0z" clip-rule="evenodd"/><path fill="url(#c)" fill-rule="evenodd" d="M0 0h24.407v18.983H0z" clip-rule="evenodd"/><path fill="url(#d)" fill-rule="evenodd" d="M4.068 5.424a1.356 1.356 0 1 1 0-2.712 1.356 1.356 0 0 1 0 2.712m5.424 0a1.356 1.356 0 1 1 0-2.712 1.356 1.356 0 0 1 0 2.712m5.423 0a1.356 1.356 0 1 1 0-2.712 1.356 1.356 0 0 1 0 2.712m5.424 0a1.356 1.356 0 1 1 0-2.712 1.356 1.356 0 0 1 0 2.712M6.779 8.136a1.356 1.356 0 1 1 0-2.712 1.356 1.356 0 0 1 0 2.712m5.424 0a1.356 1.356 0 1 1 0-2.712 1.356 1.356 0 0 1 0 2.712m5.424 0a1.356 1.356 0 1 1 0-2.712 1.356 1.356 0 0 1 0 2.712m2.712 2.712a1.356 1.356 0 1 1 0-2.712 1.356 1.356 0 0 1 0 2.712m-5.424 0a1.356 1.356 0 1 1 0-2.712 1.356 1.356 0 0 1 0 2.712m-5.423 0a1.356 1.356 0 1 1 0-2.712 1.356 1.356 0 0 1 0 2.712m-5.424 0a1.356 1.356 0 1 1 0-2.712 1.356 1.356 0 0 1 0 2.712m2.712 2.711a1.356 1.356 0 1 1 0-2.712 1.356 1.356 0 0 1 0 2.712m5.423 0a1.356 1.356 0 1 1 0-2.712 1.356 1.356 0 0 1 0 2.712m5.424 0a1.356 1.356 0 1 1 0-2.712 1.356 1.356 0 0 1 0 2.712m2.712 2.712a1.356 1.356 0 1 1 0-2.712 1.356 1.356 0 0 1 0 2.712m-5.424 0a1.356 1.356 0 1 1 0-2.712 1.356 1.356 0 0 1 0 2.712m-5.423 0a1.356 1.356 0 1 1 0-2.712 1.356 1.356 0 0 1 0 2.712m-5.424 0a1.356 1.356 0 1 1 0-2.712 1.356 1.356 0 0 1 0 2.712" clip-rule="evenodd"/><defs><linearGradient id="a" x1="597.967" x2="597.967" y1="0" y2="610.17" gradientUnits="userSpaceOnUse"><stop stop-color="#fff"/><stop offset="1" stop-color="#F0F0F0"/></linearGradient><linearGradient id="b" x1="597.967" x2="597.967" y1="0" y2="610.17" gradientUnits="userSpaceOnUse"><stop stop-color="#D02F44"/><stop offset="1" stop-color="#B12537"/></linearGradient><linearGradient id="c" x1="256.271" x2="256.271" y1="0" y2="284.746" gradientUnits="userSpaceOnUse"><stop stop-color="#46467F"/><stop offset="1" stop-color="#3C3C6D"/></linearGradient><linearGradient id="d" x1="202.034" x2="202.034" y1="2.712" y2="206.102" gradientUnits="userSpaceOnUse"><stop stop-color="#fff"/><stop offset="1" stop-color="#F0F0F0"/></linearGradient></defs></svg>