<svg xmlns="http://www.w3.org/2000/svg" width="57" height="41" fill="none"><path fill="url(#a)" fill-rule="evenodd" d="M0 0h56.95v40.678H0z" clip-rule="evenodd"/><path fill="url(#b)" fill-rule="evenodd" d="M0 0h56.95v10.848H0z" clip-rule="evenodd"/><path fill="url(#c)" fill-rule="evenodd" d="M0 29.83h56.95v10.848H0z" clip-rule="evenodd"/><path fill="url(#d)" fill-rule="evenodd" d="M0 10.847h56.95v18.984H0z" clip-rule="evenodd"/><path fill="#FFEDB1" fill-rule="evenodd" d="M14.915 18.983h2.712v1.356h-2.712z" clip-rule="evenodd"/><path fill="#A41517" d="M13.329 22.941c.067.801.79 1.466 1.586 1.466.798 0 1.52-.668 1.587-1.466l.33-3.958h-3.833zm-1.692-3.97c-.062-.742.514-1.344 1.26-1.344h4.036c.758 0 1.323.585 1.26 1.344l-.34 4.083c-.125 1.496-1.43 2.709-2.938 2.709-1.497 0-2.812-1.2-2.937-2.71z"/><path fill="#A41517" fill-rule="evenodd" d="M12.204 20.339h5.423v1.356h-1.356l-1.356 2.712-1.355-2.712h-1.356zM8.136 16.271h2.712v9.492H8.136zM18.983 16.271h2.712v9.492h-2.712zM12.204 14.915c0-.749.58-1.356 1.368-1.356h2.687c.756 0 1.368.63 1.368 1.356v.672a.67.67 0 0 1-.665.684H12.87a.665.665 0 0 1-.665-.684z" clip-rule="evenodd"/><defs><linearGradient id="a" x1="597.967" x2="597.967" y1="0" y2="610.17" gradientUnits="userSpaceOnUse"><stop stop-color="#fff"/><stop offset="1" stop-color="#F0F0F0"/></linearGradient><linearGradient id="b" x1="597.967" x2="597.967" y1="0" y2="162.712" gradientUnits="userSpaceOnUse"><stop stop-color="#DD172C"/><stop offset="1" stop-color="#C60B1F"/></linearGradient><linearGradient id="c" x1="597.967" x2="597.967" y1="29.831" y2="192.543" gradientUnits="userSpaceOnUse"><stop stop-color="#DD172C"/><stop offset="1" stop-color="#C60B1F"/></linearGradient><linearGradient id="d" x1="597.967" x2="597.967" y1="10.847" y2="295.593" gradientUnits="userSpaceOnUse"><stop stop-color="#FFD133"/><stop offset="1" stop-color="#FFC500"/></linearGradient></defs></svg>