<svg xmlns="http://www.w3.org/2000/svg" width="57" height="41" fill="none"><path fill="url(#a)" fill-rule="evenodd" d="M0 0h56.95v40.678H0z" clip-rule="evenodd"/><path fill="url(#b)" fill-rule="evenodd" d="M0 0h56.95v40.678H0z" clip-rule="evenodd"/><path fill="#FDD216" fill-rule="evenodd" d="M6.566 21.079c-.631-.409-.618-1.08 0-1.48L27.331 6.163c.631-.408 1.668-.4 2.286 0L50.382 19.6c.631.409.618 1.08 0 1.48L29.617 34.515c-.631.408-1.668.4-2.286 0z" clip-rule="evenodd"/><path fill="url(#c)" d="M28.474 29.83a9.492 9.492 0 1 0 0-18.983 9.492 9.492 0 0 0 0 18.984"/><mask id="d" width="20" height="20" x="18" y="10" maskUnits="userSpaceOnUse" style="mask-type:luminance"><path fill="#fff" d="M28.474 29.83a9.492 9.492 0 1 0 0-18.983 9.492 9.492 0 0 0 0 18.984"/></mask><g mask="url(#d)"><path fill="#fff" d="M18.711 18.912c.72-.583 3.967-.108 9.585 1.39 3.998 1.067 8.605 3.421 9.659 4.723l.853 1.053 2.108-1.706-.854-1.054c-1.491-1.842-6.565-4.435-11.067-5.636-7.012-1.87-10.191-2.335-11.99-.878l-1.054.854 1.706 2.107z"/></g><defs><linearGradient id="a" x1="2847.46" x2="2847.46" y1="0" y2="4067.8" gradientUnits="userSpaceOnUse"><stop stop-color="#fff"/><stop offset="1" stop-color="#F0F0F0"/></linearGradient><linearGradient id="b" x1="2847.46" x2="2847.46" y1="0" y2="4067.8" gradientUnits="userSpaceOnUse"><stop stop-color="#05AB41"/><stop offset="1" stop-color="#019C39"/></linearGradient><linearGradient id="c" x1="968.136" x2="968.136" y1="10.847" y2="1909.15" gradientUnits="userSpaceOnUse"><stop stop-color="#053087"/><stop offset="1" stop-color="#012877"/></linearGradient></defs></svg>