<svg xmlns="http://www.w3.org/2000/svg" width="100" height="100" fill="none"><g fill="#F90" clip-path="url(#a)"><path d="M28.181 44.852c0 1.244.134 2.25.367 2.99.267.74.598 1.546 1.065 2.419.166.268.233.537.233.772 0 .336-.2.671-.631 1.009l-2.096 1.41a1.6 1.6 0 0 1-.865.302c-.333 0-.664-.168-.998-.47a10.4 10.4 0 0 1-1.198-1.58 26 26 0 0 1-1.03-1.981q-3.893 4.635-9.78 4.635c-2.794 0-5.023-.806-6.652-2.418s-2.46-3.763-2.46-6.45c0-2.855.997-5.173 3.026-6.92 2.03-1.745 4.723-2.62 8.148-2.62 1.132 0 2.296.1 3.525.269s2.494.437 3.825.74v-2.453c0-2.552-.53-4.333-1.562-5.375-1.065-1.041-2.86-1.546-5.42-1.546-1.211 0-2.417.148-3.593.438a26 26 0 0 0-3.591 1.142q-.57.254-1.165.437a2 2 0 0 1-.531.1c-.467 0-.698-.335-.698-1.042v-1.645c0-.538.067-.94.233-1.175.167-.236.467-.471.932-.707q1.745-.906 4.191-1.512a20 20 0 0 1 5.188-.638c3.958 0 6.852.907 8.714 2.721 1.83 1.815 2.76 4.569 2.76 8.263V44.85zm-13.504 5.104c1.098 0 2.23-.202 3.425-.604 1.198-.402 2.263-1.141 3.16-2.15.532-.637.932-1.344 1.132-2.15s.333-1.781.333-2.923v-1.41a27 27 0 0 0-3.06-.571 25 25 0 0 0-3.127-.202c-2.23 0-3.859.437-4.957 1.344-1.098.906-1.629 2.183-1.629 3.862 0 1.58.4 2.754 1.231 3.56.798.842 1.963 1.244 3.492 1.244m26.708 3.63c-.597 0-.997-.1-1.264-.336-.267-.202-.498-.67-.698-1.31l-7.817-25.965c-.2-.67-.3-1.108-.3-1.344 0-.537.267-.84.798-.84h3.26c.632 0 1.065.1 1.299.336.266.202.464.671.664 1.31l5.588 22.238 5.187-22.237c.167-.671.367-1.109.631-1.31.267-.203.732-.336 1.332-.336h2.66c.631 0 1.065.1 1.331.335.267.202.498.671.632 1.31l5.254 22.507 5.754-22.506c.2-.671.433-1.109.664-1.31.267-.203.698-.336 1.298-.336h3.094c.531 0 .831.268.831.84 0 .168-.033.335-.066.537-.034.202-.1.47-.234.84L63.27 51.972q-.3 1.006-.698 1.31c-.398.305-.698.336-1.265.336h-2.86c-.631 0-1.065-.1-1.331-.336-.267-.235-.498-.67-.632-1.343L51.33 30.273l-5.12 21.633c-.167.671-.367 1.109-.632 1.344-.267.236-.731.336-1.331.336zm42.738.906c-1.73 0-3.458-.202-5.12-.604-1.663-.402-2.961-.84-3.826-1.344-.531-.302-.898-.638-1.031-.94a2.3 2.3 0 0 1-.2-.94v-1.712c0-.706.267-1.041.764-1.041q.3 0 .598.1c.2.066.498.202.832.335 1.173.522 2.4.916 3.658 1.175a19.8 19.8 0 0 0 3.958.402c2.096 0 3.725-.369 4.856-1.108 1.132-.74 1.73-1.815 1.73-3.192 0-.94-.3-1.712-.898-2.352-.598-.638-1.73-1.208-3.359-1.746l-4.822-1.512c-2.428-.773-4.223-1.915-5.321-3.427-1.098-1.478-1.663-3.123-1.663-4.871q0-2.117.898-3.73c.898-1.612 1.398-2.014 2.394-2.754a10.4 10.4 0 0 1 3.458-1.746 14.6 14.6 0 0 1 4.192-.568c.731 0 1.496.033 2.229.133.765.1 1.462.235 2.162.369.665.169 1.298.335 1.896.537q.898.302 1.398.605c.467.268.798.537.998.84q.3.401.3 1.107v1.58c0 .706-.266 1.075-.764 1.075-.267 0-.698-.134-1.265-.402q-2.844-1.31-6.385-1.31c-1.896 0-3.392.301-4.423.939s-1.563 1.612-1.563 2.99c0 .939.334 1.745.998 2.385.665.637 1.896 1.277 3.658 1.848l4.723 1.512c2.394.773 4.125 1.848 5.154 3.225 1.03 1.377 1.53 2.956 1.53 4.702 0 1.444-.3 2.754-.865 3.896a9 9 0 0 1-2.427 2.956c-1.031.84-2.263 1.444-3.692 1.881-1.54.48-3.146.719-4.76.707M90.408 70.817c-10.941 8.162-26.84 12.496-40.51 12.496-19.156 0-36.419-7.155-49.456-19.046-1.032-.94-.1-2.217 1.13-1.477 14.103 8.262 31.497 13.268 49.49 13.268 12.14 0 25.478-2.552 37.748-7.793 1.832-.84 3.394 1.208 1.598 2.552m4.557-5.24c-1.398-1.814-9.246-.873-12.805-.437-1.064.133-1.23-.807-.266-1.513 6.252-4.433 16.529-3.158 17.727-1.679 1.198 1.513-.334 11.892-6.186 16.863-.898.772-1.762.368-1.364-.638 1.331-3.325 4.291-10.817 2.894-12.596"/></g><defs><clipPath id="a"><path fill="#fff" d="M0 0h100v100H0z"/></clipPath></defs></svg>