<svg xmlns="http://www.w3.org/2000/svg" width="20" height="24" fill="none"><path fill="#CE2C5A" d="M16.742 17.323a9.94 9.94 0 0 0 3.248-7.806c-.216-5.043-4.283-9.19-9.332-9.514C4.836-.367 0 4.233 0 9.958a9.94 9.94 0 0 0 3.258 7.365L.088 22.8c-.219.379.056.85.492.85h14.95a.245.245 0 0 0 .213-.367l-.258-.45a2.32 2.32 0 0 0-2.014-1.16H3.026L9.836 9.91a.19.19 0 0 1 .331 0l3.013 5.203c.098.17.324.228.484.117q.474-.321.888-.731.092-.092.176-.19a.34.34 0 0 0 .04-.398L10.49 6.522a.567.567 0 0 0-.982 0l-5.233 9.037c-1.83-1.858-2.645-4.448-2.16-7.104a7.65 7.65 0 0 1 1.26-3.02c1.771-2.532 4.682-3.806 7.718-3.407a7.9 7.9 0 0 1 3.762 1.561c2.027 1.558 3.16 3.877 3.16 6.369a7.94 7.94 0 0 1-2.348 5.653l-.042.043a8 8 0 0 1-.449.408q-.063.055-.124.104-.104.083-.207.16-.076.06-.154.115-.099.072-.203.144-.092.061-.19.124a7.96 7.96 0 0 1-4.302 1.247 8 8 0 0 1-2.224-.313.374.374 0 0 0-.425.166l-.639 1.101a.37.37 0 0 0 .213.536c.97.313 2 .48 3.072.48 1.882 0 3.64-.52 5.144-1.421l2.835 4.9a.48.48 0 0 0 .413.237h1.028c.436 0 .71-.47.491-.849l-3.17-5.477z"/></svg>