<svg width="100" height="100" viewBox="0 0 100 100" fill="none" xmlns="http://www.w3.org/2000/svg">
<rect width="100" height="100" fill="#B0B0B0" fill-opacity="0.3"/>
<path fill-rule="evenodd" clip-rule="evenodd" d="M64.6015 47.7971C67.5816 47.7971 70 45.3787 70 42.3985C70 39.4183 67.5816 37 64.6015 37C61.6213 37 59.2029 39.4183 59.2029 42.3985C59.2029 45.3787 61.6213 47.7971 64.6015 47.7971ZM62.4595 61.4117L33.6019 54.0837C31.8697 53.6407 30.2235 55.0177 30.3955 56.7539C31.1326 64.0459 36.4152 70.4519 44.1056 72.4156C51.8084 74.3673 59.6217 71.2901 63.9214 65.2792C64.9411 63.8543 64.1917 61.8667 62.4595 61.4237V61.4117ZM32.8576 43.6199C32.5401 43.8764 32.1492 43.9986 31.7706 43.9986H31.7584C31.2454 43.9986 30.7202 43.7665 30.3782 43.3268C29.7797 42.5573 29.9019 41.4459 30.6713 40.8474C33.9569 38.2458 38.8058 38.2458 42.1035 40.8474C42.873 41.4581 43.0074 42.5695 42.3967 43.3268C41.7982 44.0963 40.6867 44.2184 39.9172 43.6199C37.8775 42.0077 34.8851 42.0199 32.8576 43.6199Z" fill="black" fill-opacity="0.3"/>
</svg>
